# xmcd
# 
# Track frame offsets:
#     182
#     16455
#     29900
#     44032
#     55077
#     67640
#     82332
#     97957
#     111580
#     125977
#     142132
#     157945
#     172975
#     192232
#     208700
#     227950
#     242847
#     257545
#     275190
#     289720
#     302842
#     317620
# 
# Disc length: 4421
# 
# Revision: 3
# Processed by: cddbd v1.5.2PL0 Copyright (c) Steve Scherf et al.
# Submitted via: BonkEnc v1.0.8
# 
DISCID=53114316
DTITLE=Tião Carreiro and Pardinho - Dose Dupla Volume 4
DYEAR=1996
DGENRE=Country
TTITLE0=Terra Roxa
TTITLE1=O Mineiro e o Italiano
TTITLE2=Cochilou o Cachimbo Cai
TTITLE3=Empreitada Perigosa
TTITLE4=Nascimento de Jesus
TTITLE5=Minha História de Amor
TTITLE6=Faca Que Não Corta
TTITLE7=Margarida
TTITLE8=Urutú Cruzeiro
TTITLE9=Azulão de Reino Encantado
TTITLE10=Confiança
TTITLE11=A Vaca Já Foi Pro Brejo
TTITLE12=Golpe De Mestre
TTITLE13=Rio de Lágrimas
TTITLE14=Hoje Eu Não Posso Ir
TTITLE15=Duelo de Amor
TTITLE16=O Pulo Do Gato
TTITLE17=Menino Da Porteiro
TTITLE18=Alma De Boêmio
TTITLE19=Rei Do Gado
TTITLE20=Boi Soberano
TTITLE21=Punhal Da Falsidade
EXTD=YEAR: 1996 ID3G:   2
EXTT0=
EXTT1=
EXTT2=
EXTT3=
EXTT4=
EXTT5=
EXTT6=
EXTT7=
EXTT8=
EXTT9=
EXTT10=
EXTT11=
EXTT12=
EXTT13=
EXTT14=
EXTT15=
EXTT16=
EXTT17=
EXTT18=
EXTT19=
EXTT20=
EXTT21=
PLAYORDER=
